<svg width="86" height="86" viewBox="0 0 86 86" fill="none" xmlns="http://www.w3.org/2000/svg">
<path d="M43 86C66.7482 86 86 66.7482 86 43C86 19.2518 66.7482 0 43 0C19.2518 0 0 19.2518 0 43C0 66.7482 19.2518 86 43 86Z" fill="black"/>
<path d="M42.5254 57.5791C42.0215 57.5791 41.554 57.5002 41.123 57.3423C40.698 57.1784 40.3277 56.9477 40.012 56.6502C39.7023 56.3527 39.4595 56.0036 39.2834 55.6029C39.1073 55.1962 39.0193 54.7499 39.0193 54.2642C39.0193 53.7785 39.1073 53.3354 39.2834 52.9347C39.4595 52.5279 39.7023 52.1758 40.012 51.8783C40.3277 51.5808 40.698 51.3531 41.123 51.1953C41.554 51.0313 42.0215 50.9494 42.5254 50.9494C43.1143 50.9494 43.6395 51.0526 44.1009 51.259C44.5684 51.4654 44.9569 51.7629 45.2666 52.1515L44.1191 53.1896C43.9127 52.9468 43.685 52.7616 43.4361 52.6341C43.1933 52.5066 42.9201 52.4429 42.6165 52.4429C42.3554 52.4429 42.1156 52.4854 41.8971 52.5704C41.6785 52.6554 41.4903 52.7798 41.3324 52.9438C41.1807 53.1016 41.0592 53.2929 40.9682 53.5175C40.8832 53.7421 40.8407 53.991 40.8407 54.2642C40.8407 54.5374 40.8832 54.7864 40.9682 55.011C41.0592 55.2356 41.1807 55.4299 41.3324 55.5938C41.4903 55.7517 41.6785 55.8731 41.8971 55.9581C42.1156 56.0431 42.3554 56.0856 42.6165 56.0856C42.9201 56.0856 43.1933 56.0219 43.4361 55.8944C43.685 55.7669 43.9127 55.5817 44.1191 55.3388L45.2666 56.377C44.9569 56.7595 44.5684 57.057 44.1009 57.2695C43.6395 57.4759 43.1143 57.5791 42.5254 57.5791ZM49.1518 57.5791C48.6418 57.5791 48.1713 57.4971 47.7403 57.3332C47.3092 57.1693 46.9328 56.9386 46.611 56.6411C46.2953 56.3376 46.0494 55.9854 45.8734 55.5847C45.6973 55.184 45.6093 54.7439 45.6093 54.2642C45.6093 53.7846 45.6973 53.3445 45.8734 52.9438C46.0494 52.5431 46.2953 52.194 46.611 51.8965C46.9328 51.5929 47.3092 51.3592 47.7403 51.1953C48.1713 51.0313 48.6418 50.9494 49.1518 50.9494C49.6679 50.9494 50.1384 51.0313 50.5634 51.1953C50.9944 51.3592 51.3678 51.5929 51.6835 51.8965C51.9992 52.194 52.2451 52.5431 52.4211 52.9438C52.6033 53.3445 52.6944 53.7846 52.6944 54.2642C52.6944 54.7439 52.6033 55.1871 52.4211 55.5938C52.2451 55.9945 51.9992 56.3436 51.6835 56.6411C51.3678 56.9386 50.9944 57.1693 50.5634 57.3332C50.1384 57.4971 49.6679 57.5791 49.1518 57.5791ZM49.1518 56.0856C49.3947 56.0856 49.6193 56.0431 49.8257 55.9581C50.0382 55.8731 50.2203 55.7517 50.3721 55.5938C50.53 55.4299 50.6514 55.2356 50.7364 55.011C50.8275 54.7864 50.873 54.5374 50.873 54.2642C50.873 53.985 50.8275 53.736 50.7364 53.5175C50.6514 53.2929 50.53 53.1016 50.3721 52.9438C50.2203 52.7798 50.0382 52.6554 49.8257 52.5704C49.6193 52.4854 49.3947 52.4429 49.1518 52.4429C48.909 52.4429 48.6813 52.4854 48.4688 52.5704C48.2624 52.6554 48.0803 52.7798 47.9224 52.9438C47.7706 53.1016 47.6492 53.2929 47.5581 53.5175C47.4731 53.736 47.4306 53.985 47.4306 54.2642C47.4306 54.5374 47.4731 54.7864 47.5581 55.011C47.6492 55.2356 47.7706 55.4299 47.9224 55.5938C48.0803 55.7517 48.2624 55.8731 48.4688 55.9581C48.6813 56.0431 48.909 56.0856 49.1518 56.0856ZM53.6388 57.4516V51.0769H55.1232L58.6384 55.3206H57.9372V51.0769H59.7039V57.4516H58.2195L54.7042 53.2079H55.4055V57.4516H53.6388Z" fill="white"/>
<path d="M62.7893 57.4516V56.3224L65.1753 54.0912C65.3453 53.9334 65.4697 53.7937 65.5487 53.6723C65.6337 53.5509 65.6883 53.4416 65.7126 53.3445C65.7429 53.2412 65.7581 53.1471 65.7581 53.0621C65.7581 52.8557 65.6883 52.6948 65.5487 52.5795C65.4151 52.4641 65.2117 52.4065 64.9385 52.4065C64.7078 52.4065 64.4923 52.4581 64.2919 52.5613C64.0916 52.6645 63.9277 52.8193 63.8002 53.0257L62.4615 52.279C62.6982 51.8783 63.0413 51.5565 63.4905 51.3136C63.9398 51.0708 64.4771 50.9494 65.1024 50.9494C65.5942 50.9494 66.0253 51.0283 66.3956 51.1862C66.7659 51.344 67.0543 51.5686 67.2607 51.8601C67.4732 52.1515 67.5795 52.4945 67.5795 52.8891C67.5795 53.0955 67.5522 53.302 67.4975 53.5084C67.4429 53.7087 67.3366 53.9243 67.1788 54.155C67.027 54.3796 66.7993 54.6315 66.4958 54.9108L64.6016 56.6593L64.301 56.0219H67.7525V57.4516H62.7893ZM68.1603 56.2313V55.0565L71.0198 51.0769H72.8867L70.1091 55.0565L69.2531 54.8015H74.2345V56.2313H68.1603ZM71.5298 57.4516V56.2313L71.5844 54.8015V53.7178H73.2874V57.4516H71.5298Z" fill="white"/>
<path d="M45.2429 48.9355V46.9114L44.9823 46.4104V42.6829C44.9823 42.0817 44.7953 41.6208 44.4212 41.3002C44.0605 40.9662 43.4793 40.7992 42.6777 40.7992C42.1567 40.7992 41.6289 40.886 41.0945 41.0597C40.5601 41.22 40.1059 41.4471 39.7318 41.741L38.4492 39.1559C39.0638 38.755 39.7986 38.4478 40.6536 38.234C41.5221 38.0069 42.3838 37.8933 43.2388 37.8933C45.0024 37.8933 46.3651 38.3008 47.327 39.1158C48.3023 39.9174 48.79 41.1799 48.79 42.9034V48.9355H45.2429ZM42.0364 49.1158C41.168 49.1158 40.4332 48.9689 39.832 48.675C39.2308 48.381 38.7699 47.9802 38.4492 47.4725C38.1419 46.9649 37.9883 46.3971 37.9883 45.7691C37.9883 45.1011 38.1553 44.5266 38.4893 44.0457C38.8367 43.5513 39.3644 43.1773 40.0725 42.9234C40.7806 42.6562 41.6957 42.5226 42.818 42.5226H45.3831V44.5066H43.339C42.7245 44.5066 42.2903 44.6068 42.0364 44.8072C41.7959 45.0076 41.6757 45.2748 41.6757 45.6088C41.6757 45.9428 41.8026 46.21 42.0565 46.4104C42.3103 46.6108 42.6577 46.711 43.0986 46.711C43.5127 46.711 43.8868 46.6108 44.2208 46.4104C44.5682 46.1967 44.822 45.876 44.9823 45.4485L45.5034 46.8513C45.303 47.5995 44.9089 48.1673 44.321 48.5547C43.7465 48.9288 42.985 49.1158 42.0364 49.1158ZM55.1413 49.1158C54.2195 49.1158 53.3177 49.009 52.4359 48.7952C51.5675 48.5814 50.8661 48.3142 50.3317 47.9936L51.474 45.3884C51.9816 45.6956 52.5762 45.9428 53.2575 46.1299C53.9389 46.3035 54.6069 46.3904 55.2616 46.3904C55.9029 46.3904 56.3437 46.3236 56.5842 46.19C56.8381 46.0564 56.965 45.876 56.965 45.6489C56.965 45.4351 56.8447 45.2815 56.6043 45.188C56.3771 45.0811 56.0699 45.0009 55.6824 44.9475C55.3083 44.894 54.8942 44.8339 54.4399 44.7671C53.9857 44.7003 53.5247 44.6135 53.0571 44.5066C52.6029 44.3864 52.182 44.2127 51.7946 43.9855C51.4205 43.7451 51.1199 43.4244 50.8928 43.0236C50.6657 42.6228 50.5521 42.1151 50.5521 41.5006C50.5521 40.8058 50.7525 40.1913 51.1533 39.6569C51.5675 39.1091 52.1687 38.6816 52.9569 38.3743C53.7452 38.0536 54.7071 37.8933 55.8427 37.8933C56.6043 37.8933 57.3725 37.9735 58.1474 38.1338C58.9356 38.2808 59.5969 38.5079 60.1313 38.8152L58.989 41.4004C58.4546 41.0931 57.9202 40.886 57.3858 40.7791C56.8514 40.6589 56.3437 40.5987 55.8628 40.5987C55.2215 40.5987 54.7672 40.6722 54.5 40.8192C54.2462 40.9662 54.1193 41.1465 54.1193 41.3603C54.1193 41.574 54.2328 41.741 54.46 41.8613C54.6871 41.9682 54.9877 42.055 55.3618 42.1218C55.7492 42.1752 56.1701 42.2354 56.6243 42.3022C57.0785 42.3556 57.5328 42.4425 57.987 42.5627C58.4546 42.6829 58.8755 42.8633 59.2496 43.1038C59.637 43.3309 59.9443 43.6449 60.1714 44.0457C60.3985 44.4331 60.5121 44.9341 60.5121 45.5487C60.5121 46.2167 60.305 46.8179 59.8909 47.3523C59.4901 47.8867 58.8888 48.3142 58.0872 48.6349C57.299 48.9555 56.317 49.1158 55.1413 49.1158ZM69.2271 37.8933C70.0688 37.8933 70.8303 38.067 71.5117 38.4144C72.1931 38.7484 72.7275 39.2694 73.1149 39.9775C73.5157 40.6856 73.7161 41.6008 73.7161 42.723V48.9355H69.9085V43.3443C69.9085 42.5694 69.7481 42.0082 69.4275 41.6609C69.1202 41.3002 68.686 41.1198 68.1249 41.1198C67.7241 41.1198 67.3567 41.2133 67.0227 41.4004C66.6887 41.574 66.4281 41.8479 66.2411 42.222C66.0541 42.5961 65.9605 43.0837 65.9605 43.6849V48.9355H62.1529V34.0656H65.9605V41.1599L65.0788 40.2581C65.4929 39.4698 66.0607 38.882 66.7822 38.4945C67.5036 38.0937 68.3186 37.8933 69.2271 37.8933Z" fill="white"/>
<path fill-rule="evenodd" clip-rule="evenodd" d="M9.15027 36.8636C9.15027 36.3199 9.36625 35.7985 9.7507 35.414C10.1351 35.0296 10.6566 34.8136 11.2003 34.8136H35.8003C36.344 34.8136 36.8654 35.0296 37.2498 35.414C37.6343 35.7985 37.8503 36.3199 37.8503 36.8636C37.8503 37.4073 37.6343 37.9287 37.2498 38.3131C36.8654 38.6976 36.344 38.9136 35.8003 38.9136H11.2003C10.6566 38.9136 10.1351 38.6976 9.7507 38.3131C9.36625 37.9287 9.15027 37.4073 9.15027 36.8636ZM9.15027 48.1386C9.15027 47.5949 9.36625 47.0735 9.7507 46.689C10.1351 46.3046 10.6566 46.0886 11.2003 46.0886H35.8003C36.344 46.0886 36.8654 46.3046 37.2498 46.689C37.6343 47.0735 37.8503 47.5949 37.8503 48.1386C37.8503 48.6823 37.6343 49.2037 37.2498 49.5881C36.8654 49.9726 36.344 50.1886 35.8003 50.1886H11.2003C10.6566 50.1886 10.1351 49.9726 9.7507 49.5881C9.36625 49.2037 9.15027 48.6823 9.15027 48.1386Z" fill="white"/>
<path fill-rule="evenodd" clip-rule="evenodd" d="M19.0582 28.16C19.3267 28.1823 19.5881 28.2572 19.8276 28.3805C20.067 28.5038 20.2799 28.6731 20.4539 28.8787C20.6279 29.0844 20.7597 29.3222 20.8417 29.5788C20.9237 29.8354 20.9544 30.1056 20.9319 30.374L18.8819 54.974C18.8594 55.2424 18.7843 55.5038 18.6608 55.7432C18.5373 55.9825 18.3679 56.1952 18.1622 56.3691C17.9566 56.543 17.7186 56.6747 17.4621 56.7566C17.2055 56.8386 16.9353 56.8692 16.6669 56.8467C16.3985 56.8242 16.1371 56.7491 15.8978 56.6256C15.6584 56.5022 15.4457 56.3327 15.2718 56.1271C15.0979 55.9214 14.9662 55.6834 14.8843 55.4269C14.8023 55.1703 14.7717 54.9001 14.7942 54.6317L16.8442 30.0317C16.8896 29.4899 17.1484 28.9883 17.5636 28.6373C17.9788 28.2863 18.5164 28.1146 19.0582 28.16ZM30.3332 28.16C30.6017 28.1823 30.8631 28.2572 31.1026 28.3805C31.342 28.5038 31.5549 28.6731 31.7289 28.8787C31.9029 29.0844 32.0347 29.3222 32.1167 29.5788C32.1987 29.8354 32.2294 30.1056 32.2069 30.374L30.1569 54.974C30.1095 55.5143 29.85 56.0137 29.4351 56.363C29.0203 56.7123 28.484 56.8829 27.9436 56.8377C27.4032 56.7924 26.9027 56.5348 26.5518 56.1214C26.2009 55.7079 26.0281 55.1723 26.0713 54.6317L28.1213 30.0317C28.1667 29.4899 28.4254 28.9883 28.8406 28.6373C29.2558 28.2863 29.7914 28.1146 30.3332 28.16Z" fill="white"/>
</svg>
